<?xml version="1.0" standalone="no"?>
<!DOCTYPE svg PUBLIC "-//W3C//DTD SVG 20010904//EN"
 "http://www.w3.org/TR/2001/REC-SVG-20010904/DTD/svg10.dtd">
<svg version="1.0" xmlns="http://www.w3.org/2000/svg"
 width="175.000000pt" height="175.000000pt" viewBox="0 0 175.000000 175.000000"
 preserveAspectRatio="xMidYMid meet">
<metadata>
Created by potrace 1.14, written by Peter Selinger 2001-2017
</metadata>
<g transform="translate(0.000000,175.000000) scale(0.100000,-0.100000)"
fill="#000000" stroke="none">
<path d="M1139 1487 c-45 -30 -71 -80 -130 -250 -27 -78 -57 -157 -67 -176
-30 -58 -141 -142 -221 -166 l-24 -7 8 73 c12 106 11 138 -7 155 -42 42 -95
-25 -133 -171 -14 -55 -34 -116 -44 -135 -25 -49 -84 -91 -182 -129 -134 -53
-166 -69 -203 -102 -41 -35 -47 -72 -15 -89 42 -23 95 -13 236 44 76 31 161
59 189 62 51 6 82 -2 223 -61 123 -52 183 -37 171 44 -2 19 -32 43 -108 88
-34 21 -61 42 -59 48 6 20 124 91 181 109 74 24 105 18 251 -44 150 -65 267
-94 313 -79 60 20 57 83 -5 127 -35 23 -238 112 -258 112 -8 0 -15 4 -15 8 0
27 81 66 230 109 209 61 277 116 223 182 -29 36 -75 28 -308 -48 -121 -40
-226 -74 -233 -76 -8 -3 -11 3 -8 18 5 29 34 116 47 142 24 51 56 162 52 185
-10 55 -48 65 -104 27z"/>
</g>
</svg>
